<svg width="202" height="177" viewBox="0 0 202 177" xmlns="http://www.w3.org/2000/svg"><path d="M128.83 76.466c-.164.187-.036.622.365 1.283l.175.276.204.3.233.322.261.346.29.368.487.594.176.21.373.433.4.455.427.476.692.752.54.576.62.649.656.676.692.703.728.729 1.156 1.14 1.233 1.197.864.827.897.852.93.874 1.455 1.354 1.526 1.403 1.056.962 1.64 1.481 1.87 1.67 2.03 1.794 1.399 1.227 2.906 2.524 2.27 1.953 2.346 2.003 2.419 2.049 2.49 2.095 1.697 1.421 3.484 2.898 2.254 1.864 2.299 1.892 3.525 2.888 3.615 2.946 3.7 3 5.055 4.083 5.184 4.17 2.636 2.116a153.55 153.55 0 00-11.147.706c-13.647 1.36-26.242 4.408-37.465 8.045a228.221 228.221 0 00-19.27 7.242l-1.933.835c-2.23.975-4.373 1.95-6.424 2.916l-1.735.823-3.33 1.723-3.164 1.655-3.475 1.842-2.785 1.499-2.6 1.422-2.02 1.123-1.884 1.065-1.744 1.006-1.292.76-1.198.72-1.102.68-.763.48-.477.308-.88.582-.594.407-.363.258-.337.246-.311.234-.417.33-.245.205-.217.193a7.38 7.38 0 00-.098.092l-.176.175-.149.163c-.27.313-.371.551-.298.711.074.16.322.237.735.236l.22-.008.247-.02.134-.016.288-.04.315-.052.34-.066.561-.122.62-.15.675-.178.733-.205.519-.152.825-.25.879-.277 1.584-.519 1.371-.466 1.841-.647 1.98-.715 1.68-.62 2.677-1.009 2.37-.91 1.985-.774 2.589-1.023 3.259-1.305 2.838-1.15 1.755-.718 5.838-2.596 3.07-1.356 3.165-1.386 2.162-.937 1.097-.472 2.223-.949 2.262-.954a436.408 436.408 0 0110.647-4.305c11.42-4.436 23.973-8.665 37.266-11.337a152.508 152.508 0 019.271-1.573l1.529-.202-4.859-4.647-4.77-4.547-4.67-4.435-3.433-3.246-3.369-3.171-3.301-3.093-3.23-3.007-2.529-2.343-3.294-3.03-3.2-2.92-2.334-2.115-2.277-2.049-2.216-1.98-2.155-1.908-.704-.62-1.386-1.216-2.024-1.76-2.368-2.037-1.653-1.405-1.07-.902-1.046-.874-1.518-1.258-1.458-1.192-1.395-1.126-.895-.713-.867-.683-1.245-.968-1.178-.897-.747-.56-.716-.527-.641-.464-.573-.407-.548-.383-.523-.357-.737-.49-.46-.294-.433-.27-.6-.355-.368-.205-.34-.18-.312-.152a7.672 7.672 0 00-.284-.127l-.257-.1c-.484-.175-.798-.19-.929-.04zM.734.056C.402.148.272.941.357 2.367l.039.53.057.582.077.632.045.336.105.707.126.757.146.805.167.853c.03.146.06.294.092.443l.097.456c.058.268.119.542.182.821l.2.856.218.89.235.923c.04.156.082.314.125.473l.263.971.283 1.002.302 1.033.159.528.333 1.077.174.55.364 1.12.19.57.396 1.161c.136.392.275.788.419 1.188l.44 1.214c.302.818.62 1.653.952 2.503l.512 1.288c.436 1.083.898 2.19 1.386 3.318 3.808 8.806 9.258 18.959 16.701 29.308a166.638 166.638 0 0028.197 30.33 162.06 162.06 0 0016.86 12.345l1.142.72a161.739 161.739 0 0030.06 14.684c9.534 3.48 18.31 5.637 25.683 6.915l1.367.23 1.332.21c.658.1 1.303.192 1.935.279l1.246.164 1.21.146.591.067 1.155.122.564.055 1.098.098 1.06.084 1.02.07.982.056.94.044.454.017.878.026.836.015.793.004.686-.005.65-.012.613-.02c.099-.003.196-.008.292-.012l.556-.03.264-.018.499-.04c.16-.015.313-.03.46-.047l.421-.053.382-.059c1.025-.175 1.57-.42 1.6-.71.02-.229-.281-.479-.877-.759l-.297-.131-.337-.136-.38-.14-.418-.146-.46-.15-.762-.235-1.15-.333-.963-.265-1.933-.512-4.711-1.223-2.721-.72-1.743-.474-1.822-.506-1.898-.54-1.972-.579-1.502-.452-1.539-.474c-6.229-1.943-13.329-4.446-20.93-7.742-8.538-3.702-17.705-8.412-26.889-14.32l-1.06-.688a178.101 178.101 0 01-16.852-12.49c-10.664-8.918-19.775-18.663-27.235-28.19-6.993-8.931-12.54-17.66-16.876-25.36l-.851-1.527-.368-.669-.718-1.32-.694-1.297-.67-1.271-.326-.626-.945-1.838-.602-1.19-.58-1.162-.56-1.133-.798-1.64-.754-1.57-1.378-2.914-1.81-3.852-.572-1.199-.527-1.082-.485-.962-.3-.573-.143-.265-.272-.489a15.56 15.56 0 00-.355-.59L1.715.876C1.295.272.968-.011.734.056z" fill="#5f6367" fill-rule="evenodd"/></svg>