<svg width="168" height="88" viewBox="0 0 168 88" xmlns="http://www.w3.org/2000/svg"><path d="M98.127 62.92c.06-.177.39-.257.97-.245l.245.01.271.02.297.031.322.04.348.05.569.094.202.035.421.08.446.09.469.098.748.168.576.134.655.16.685.172.716.186.746.2 1.174.323 1.24.352.861.251.89.263.916.277 1.425.437 1.484.465 1.02.325 1.578.51 1.786.588 1.926.646 1.322.449 2.729.94 2.12.743 2.18.772 2.238.803 2.295.832 1.56.57 3.188 1.175 2.056.765 2.091.784 3.198 1.207 3.269 1.243 3.336 1.278 4.547 1.752 4.653 1.804 2.363.918a115.129 115.129 0 01-3.722-7.505c-4.234-9.374-6.977-18.697-8.824-27.35a171.078 171.078 0 01-2.522-15.233l-.183-1.568a189.073 189.073 0 01-.515-5.266l-.116-1.436-.13-2.809-.111-2.676-.107-2.948-.07-2.37-.052-2.223-.028-1.733-.015-1.623v-1.51l.009-1.124.018-1.048.029-.97.025-.676.022-.426.048-.79.041-.538.032-.333.033-.31.035-.29.058-.395.042-.236.067-.312.047-.18.05-.157c.102-.293.219-.448.35-.461.132-.012.274.121.43.39l.077.145.08.168.039.093.082.202.084.224.085.246.131.41.135.459.138.505.141.553.096.394.147.63.15.675.257 1.223.211 1.065.27 1.439.279 1.554.227 1.324.348 2.117.298 1.88.242 1.58.306 2.065.375 2.606.317 2.275.192 1.409.503 4.765.27 2.503.287 2.575.202 1.756.105.89.217 1.8.229 1.826c.361 2.849.76 5.692 1.196 8.53 1.402 9.081 3.362 18.82 6.611 28.456a114.37 114.37 0 002.455 6.612l.443 1.069-4.84-1.413-4.743-1.394-4.632-1.37-3.396-1.012-3.323-1-3.246-.984-3.165-.97-2.47-.764-3.203-1.003-3.097-.984-2.249-.722-2.185-.711-2.117-.697-2.714-.909-1.31-.444-1.901-.655-2.212-.774-1.532-.547-.987-.356-.96-.352-1.386-.514-1.321-.5-1.255-.484-.799-.314-.768-.307-1.096-.446-1.024-.428-.644-.276-.61-.267-.543-.242-.479-.22-.454-.212-.428-.206-.595-.295-.363-.189-.338-.18-.456-.256-.27-.162-.245-.154-.216-.145a5.723 5.723 0 01-.189-.137l-.161-.13c-.258-.217-.388-.396-.385-.532l.01-.056zM.46 8.371c-.065-.25.402-.632 1.36-1.111l.359-.174.399-.18.44-.188.234-.097.499-.196.539-.203.578-.207.776-.264.495-.161.602-.19.63-.191.66-.192.864-.242.907-.241.757-.192.785-.191.402-.095.824-.188.423-.093.864-.183.441-.09.903-.179c.306-.059.615-.117.929-.173l.953-.17.65-.11 1.333-.21 1.029-.15c.867-.123 1.759-.239 2.674-.345 7.148-.828 15.786-1.096 25.3-.142a124.496 124.496 0 0130.273 6.94 121.417 121.417 0 0114.341 6.322l.896.472a120.98 120.98 0 0120.81 14.018c5.836 4.887 10.528 9.778 14.123 14.088l.662.802.635.786.611.772.296.38.574.748.549.731.265.359.512.704.247.346.476.677.452.657.428.636.404.617.382.594.527.849.323.537.3.514.254.447.236.427.319.6.276.55.161.34.142.316.124.293.105.27c.27.732.316 1.178.139 1.306-.142.099-.417-.003-.822-.285l-.197-.144-.215-.168-.233-.194-.252-.217-.27-.242-.438-.407-.648-.622-.533-.526-1.057-1.064-2.561-2.601-1.488-1.498-.962-.954-1.012-.994-1.062-1.03-1.116-1.064-.856-.806-.885-.822a156.568 156.568 0 00-12.878-10.69c-5.606-4.158-12.103-8.346-19.384-12.096l-.845-.43a133.46 133.46 0 00-14.432-6.262c-9.791-3.582-19.537-5.846-28.523-7.118-8.423-1.193-16.173-1.523-22.8-1.452l-1.311.02-.573.012-1.126.029-1.103.035-1.077.042-.528.023-1.549.075-.998.055-.973.06-.945.06-1.365.097-1.302.1-2.41.197-3.18.269-.994.078-.9.063-.807.046-.485.02-.225.007-.42.006c-.172.001-.344-.002-.516-.009l-.295-.019c-.55-.046-.856-.153-.9-.33z" fill="#5F6367" fill-rule="evenodd"/></svg>